<?xml version="1.0" ?><svg height="1024" width="640" xmlns="http://www.w3.org/2000/svg"><path d="M500.396,186.043h-32.847v-18.905c0-24.968-20.234-45.221-45.212-45.221H45.211C20.263,121.917,0,142.161,0,167.138
		v188.726c0,24.967,20.263,45.221,45.211,45.221h377.135c24.968,0,45.212-20.244,45.212-45.221v-19.795h32.847
		c12.47,0,22.597-10.107,22.597-22.578V208.658C522.992,196.198,512.865,186.043,500.396,186.043z M352.436,323.331
		c0,4.648-2.056,8.521-5.633,10.605c-3.576,2.094-7.965,1.971-12.02-0.324l-76.807-43.596v33.305c0,7.135-4.58,9.945-5.986,10.645
		c-1.463,0.678-6.493,2.523-12.087-1.941L108.448,227.343c-1.597-1.262-4.915-3.892-4.915-8.271v-0.516
		c0-2.305,1.167-4.552,3.069-5.853c4.351-2.983,8.578-1.31,10.605-0.507l80.985,32.398l0.564-44.752
		c0.096-4.552,2.123-8.367,5.594-10.528c3.442-2.152,7.793-2.267,11.886-0.287L341.85,249.5c6.13,2.945,10.566,10.012,10.566,16.821
		v57.011H352.436z"/></svg>